<mxfile host="app.diagrams.net" modified="2023-11-05T04:46:31.969Z" agent="Mozilla/5.0 (Windows NT 10.0; Win64; x64) AppleWebKit/537.36 (KHTML, like Gecko) Chrome/118.0.0.0 Safari/537.36" etag="xnP95P4a4c68VW_TDUGY" version="22.0.8" type="device">
  <diagram name="Page-1" id="e7e014a7-5840-1c2e-5031-d8a46d1fe8dd">
    <mxGraphModel dx="2603" dy="758" grid="1" gridSize="10" guides="1" tooltips="1" connect="1" arrows="1" fold="1" page="1" pageScale="1" pageWidth="1169" pageHeight="826" background="none" math="0" shadow="0">
      <root>
        <mxCell id="0" />
        <mxCell id="1" parent="0" />
        <mxCell id="2" value="Đăng nhập" style="swimlane;whiteSpace=wrap" parent="1" vertex="1">
          <mxGeometry x="-270" width="410" height="680" as="geometry" />
        </mxCell>
        <mxCell id="5" value="" style="ellipse;shape=startState;fillColor=#000000;strokeColor=#ff0000;" parent="2" vertex="1">
          <mxGeometry x="160" y="30" width="30" height="30" as="geometry" />
        </mxCell>
        <mxCell id="6" value="" style="edgeStyle=elbowEdgeStyle;elbow=horizontal;verticalAlign=bottom;endArrow=open;endSize=8;strokeColor=#FF0000;endFill=1;rounded=0" parent="2" source="5" edge="1">
          <mxGeometry x="100" y="40" as="geometry">
            <mxPoint x="175" y="110" as="targetPoint" />
          </mxGeometry>
        </mxCell>
        <mxCell id="11" value="" style="endArrow=open;strokeColor=#FF0000;endFill=1;rounded=0" parent="2" edge="1">
          <mxGeometry relative="1" as="geometry">
            <mxPoint x="175" y="270" as="sourcePoint" />
            <mxPoint x="175" y="330" as="targetPoint" />
          </mxGeometry>
        </mxCell>
        <mxCell id="20" value="" style="endArrow=open;strokeColor=#FF0000;endFill=1;rounded=0" parent="2" source="_XAov5C94fZW8wz78R0O-44" edge="1">
          <mxGeometry relative="1" as="geometry">
            <mxPoint x="210.71428571428578" y="330" as="sourcePoint" />
            <mxPoint x="185" y="348" as="targetPoint" />
          </mxGeometry>
        </mxCell>
        <mxCell id="_XAov5C94fZW8wz78R0O-44" value="Condition" style="rhombus;whiteSpace=wrap;html=1;fontColor=#000000;fillColor=#ffffc0;strokeColor=#ff0000;" vertex="1" parent="2">
          <mxGeometry x="135" y="330" width="80" height="40" as="geometry" />
        </mxCell>
        <mxCell id="_XAov5C94fZW8wz78R0O-45" value="no" style="edgeStyle=orthogonalEdgeStyle;html=1;align=left;verticalAlign=bottom;endArrow=open;endSize=8;strokeColor=#ff0000;rounded=0;exitX=1;exitY=0.5;exitDx=0;exitDy=0;" edge="1" source="_XAov5C94fZW8wz78R0O-44" parent="2">
          <mxGeometry x="-1" relative="1" as="geometry">
            <mxPoint x="310" y="310" as="targetPoint" />
            <mxPoint x="220" y="350" as="sourcePoint" />
            <Array as="points">
              <mxPoint x="310" y="350" />
            </Array>
          </mxGeometry>
        </mxCell>
        <mxCell id="_XAov5C94fZW8wz78R0O-50" value="TK và MK Không Đúng&lt;br&gt;" style="rounded=1;whiteSpace=wrap;html=1;arcSize=40;fontColor=#000000;fillColor=#ffffc0;strokeColor=#ff0000;" vertex="1" parent="2">
          <mxGeometry x="250" y="280" width="120" height="40" as="geometry" />
        </mxCell>
        <mxCell id="_XAov5C94fZW8wz78R0O-51" value="" style="edgeStyle=orthogonalEdgeStyle;html=1;verticalAlign=bottom;endArrow=open;endSize=8;strokeColor=#ff0000;rounded=0;entryX=1;entryY=0.5;entryDx=0;entryDy=0;" edge="1" source="_XAov5C94fZW8wz78R0O-50" parent="2">
          <mxGeometry relative="1" as="geometry">
            <mxPoint x="230" y="245" as="targetPoint" />
            <Array as="points">
              <mxPoint x="310" y="245" />
            </Array>
          </mxGeometry>
        </mxCell>
        <mxCell id="_XAov5C94fZW8wz78R0O-52" value="Đăng Nhập&lt;br&gt;&amp;nbsp;Thành Công" style="rounded=1;whiteSpace=wrap;html=1;arcSize=40;fontColor=#000000;fillColor=#ffffc0;strokeColor=#ff0000;" vertex="1" parent="2">
          <mxGeometry x="115" y="440" width="120" height="40" as="geometry" />
        </mxCell>
        <mxCell id="_XAov5C94fZW8wz78R0O-53" value="" style="edgeStyle=orthogonalEdgeStyle;html=1;verticalAlign=bottom;endArrow=open;endSize=8;strokeColor=#ff0000;rounded=0;entryX=0.5;entryY=0;entryDx=0;entryDy=0;" edge="1" source="_XAov5C94fZW8wz78R0O-52" parent="2" target="_XAov5C94fZW8wz78R0O-54">
          <mxGeometry relative="1" as="geometry">
            <mxPoint x="175" y="510" as="targetPoint" />
          </mxGeometry>
        </mxCell>
        <mxCell id="_XAov5C94fZW8wz78R0O-54" value="Hiện Thị From Chính&lt;br&gt;" style="rounded=1;whiteSpace=wrap;html=1;arcSize=40;fontColor=#000000;fillColor=#ffffc0;strokeColor=#ff0000;" vertex="1" parent="2">
          <mxGeometry x="115" y="540" width="120" height="40" as="geometry" />
        </mxCell>
        <mxCell id="_XAov5C94fZW8wz78R0O-55" value="" style="edgeStyle=orthogonalEdgeStyle;html=1;verticalAlign=bottom;endArrow=open;endSize=8;strokeColor=#ff0000;rounded=0;entryX=0.5;entryY=0;entryDx=0;entryDy=0;" edge="1" source="_XAov5C94fZW8wz78R0O-54" parent="2" target="_XAov5C94fZW8wz78R0O-56">
          <mxGeometry relative="1" as="geometry">
            <mxPoint x="175" y="610" as="targetPoint" />
          </mxGeometry>
        </mxCell>
        <mxCell id="_XAov5C94fZW8wz78R0O-56" value="" style="ellipse;html=1;shape=endState;fillColor=#000000;strokeColor=#ff0000;" vertex="1" parent="2">
          <mxGeometry x="160" y="630" width="30" height="30" as="geometry" />
        </mxCell>
        <mxCell id="_XAov5C94fZW8wz78R0O-59" value="Vào Trang Đăng Nhập&lt;br&gt;" style="rounded=1;whiteSpace=wrap;html=1;arcSize=40;fontColor=#000000;fillColor=#ffffc0;strokeColor=#ff0000;" vertex="1" parent="2">
          <mxGeometry x="120" y="110" width="120" height="40" as="geometry" />
        </mxCell>
        <mxCell id="_XAov5C94fZW8wz78R0O-61" value="Nhập TK và MK&lt;br&gt;" style="rounded=1;whiteSpace=wrap;html=1;arcSize=40;fontColor=#000000;fillColor=#ffffc0;strokeColor=#ff0000;" vertex="1" parent="2">
          <mxGeometry x="110" y="230" width="120" height="40" as="geometry" />
        </mxCell>
        <mxCell id="_XAov5C94fZW8wz78R0O-62" value="" style="edgeStyle=orthogonalEdgeStyle;html=1;verticalAlign=bottom;endArrow=open;endSize=8;strokeColor=#ff0000;rounded=0;exitX=0.454;exitY=1;exitDx=0;exitDy=0;exitPerimeter=0;" edge="1" source="_XAov5C94fZW8wz78R0O-59" parent="2">
          <mxGeometry relative="1" as="geometry">
            <mxPoint x="174.5" y="230" as="targetPoint" />
            <mxPoint x="175" y="160" as="sourcePoint" />
            <Array as="points" />
          </mxGeometry>
        </mxCell>
        <mxCell id="_XAov5C94fZW8wz78R0O-46" value="yes" style="edgeStyle=orthogonalEdgeStyle;html=1;align=left;verticalAlign=top;endArrow=open;endSize=8;strokeColor=#ff0000;rounded=0;entryX=0.5;entryY=0;entryDx=0;entryDy=0;" edge="1" source="_XAov5C94fZW8wz78R0O-44" parent="2" target="_XAov5C94fZW8wz78R0O-52">
          <mxGeometry x="-1" relative="1" as="geometry">
            <mxPoint x="195" y="430" as="targetPoint" />
            <Array as="points">
              <mxPoint x="175" y="430" />
              <mxPoint x="175" y="430" />
            </Array>
          </mxGeometry>
        </mxCell>
        <mxCell id="_XAov5C94fZW8wz78R0O-64" value="Quên MK" style="swimlane;whiteSpace=wrap;fillColor=#ffe6cc;strokeColor=#d79b00;" vertex="1" parent="1">
          <mxGeometry x="-280" y="844" width="620" height="1226" as="geometry" />
        </mxCell>
        <mxCell id="_XAov5C94fZW8wz78R0O-65" value="" style="ellipse;shape=startState;fillColor=#000000;strokeColor=#ff0000;" vertex="1" parent="_XAov5C94fZW8wz78R0O-64">
          <mxGeometry x="160" y="30" width="30" height="30" as="geometry" />
        </mxCell>
        <mxCell id="_XAov5C94fZW8wz78R0O-66" value="" style="edgeStyle=elbowEdgeStyle;elbow=horizontal;verticalAlign=bottom;endArrow=open;endSize=8;strokeColor=#FF0000;endFill=1;rounded=0" edge="1" parent="_XAov5C94fZW8wz78R0O-64" source="_XAov5C94fZW8wz78R0O-65">
          <mxGeometry x="100" y="40" as="geometry">
            <mxPoint x="175" y="110" as="targetPoint" />
          </mxGeometry>
        </mxCell>
        <mxCell id="_XAov5C94fZW8wz78R0O-67" value="" style="endArrow=open;strokeColor=#FF0000;endFill=1;rounded=0" edge="1" parent="_XAov5C94fZW8wz78R0O-64">
          <mxGeometry relative="1" as="geometry">
            <mxPoint x="175" y="270" as="sourcePoint" />
            <mxPoint x="175" y="330" as="targetPoint" />
          </mxGeometry>
        </mxCell>
        <mxCell id="_XAov5C94fZW8wz78R0O-68" value="" style="endArrow=open;strokeColor=#FF0000;endFill=1;rounded=0" edge="1" parent="_XAov5C94fZW8wz78R0O-64" source="_XAov5C94fZW8wz78R0O-69">
          <mxGeometry relative="1" as="geometry">
            <mxPoint x="210.71428571428578" y="330" as="sourcePoint" />
            <mxPoint x="185" y="348" as="targetPoint" />
          </mxGeometry>
        </mxCell>
        <mxCell id="_XAov5C94fZW8wz78R0O-69" value="Xác Thực" style="rhombus;whiteSpace=wrap;html=1;fontColor=#000000;fillColor=#ffffc0;strokeColor=#ff0000;" vertex="1" parent="_XAov5C94fZW8wz78R0O-64">
          <mxGeometry x="135" y="330" width="80" height="40" as="geometry" />
        </mxCell>
        <mxCell id="_XAov5C94fZW8wz78R0O-70" value="no" style="edgeStyle=orthogonalEdgeStyle;html=1;align=left;verticalAlign=bottom;endArrow=open;endSize=8;strokeColor=#ff0000;rounded=0;exitX=1;exitY=0.5;exitDx=0;exitDy=0;entryX=0.5;entryY=1;entryDx=0;entryDy=0;" edge="1" parent="_XAov5C94fZW8wz78R0O-64" source="_XAov5C94fZW8wz78R0O-69" target="_XAov5C94fZW8wz78R0O-71">
          <mxGeometry x="-1" relative="1" as="geometry">
            <mxPoint x="310" y="310" as="targetPoint" />
            <mxPoint x="220" y="350" as="sourcePoint" />
            <Array as="points">
              <mxPoint x="460" y="350" />
            </Array>
          </mxGeometry>
        </mxCell>
        <mxCell id="_XAov5C94fZW8wz78R0O-71" value="Check lại Gmail Và MK" style="rounded=1;whiteSpace=wrap;html=1;arcSize=40;fontColor=#000000;fillColor=#ffffc0;strokeColor=#ff0000;" vertex="1" parent="_XAov5C94fZW8wz78R0O-64">
          <mxGeometry x="400" y="276" width="120" height="40" as="geometry" />
        </mxCell>
        <mxCell id="_XAov5C94fZW8wz78R0O-72" value="" style="edgeStyle=orthogonalEdgeStyle;html=1;verticalAlign=bottom;endArrow=open;endSize=8;strokeColor=#ff0000;rounded=0;entryX=1;entryY=0.5;entryDx=0;entryDy=0;" edge="1" parent="_XAov5C94fZW8wz78R0O-64" source="_XAov5C94fZW8wz78R0O-71">
          <mxGeometry relative="1" as="geometry">
            <mxPoint x="230" y="245" as="targetPoint" />
            <Array as="points">
              <mxPoint x="460" y="245" />
            </Array>
          </mxGeometry>
        </mxCell>
        <mxCell id="_XAov5C94fZW8wz78R0O-73" value="Gửi&amp;nbsp; Mã Về Gmail" style="rounded=1;whiteSpace=wrap;html=1;arcSize=40;fontColor=#000000;fillColor=#ffffc0;strokeColor=#ff0000;" vertex="1" parent="_XAov5C94fZW8wz78R0O-64">
          <mxGeometry x="115" y="450" width="120" height="40" as="geometry" />
        </mxCell>
        <mxCell id="_XAov5C94fZW8wz78R0O-74" value="" style="edgeStyle=orthogonalEdgeStyle;html=1;verticalAlign=bottom;endArrow=open;endSize=8;strokeColor=#ff0000;rounded=0;entryX=0.5;entryY=0;entryDx=0;entryDy=0;" edge="1" parent="_XAov5C94fZW8wz78R0O-64" source="_XAov5C94fZW8wz78R0O-73" target="_XAov5C94fZW8wz78R0O-75">
          <mxGeometry relative="1" as="geometry">
            <mxPoint x="175" y="510" as="targetPoint" />
          </mxGeometry>
        </mxCell>
        <mxCell id="_XAov5C94fZW8wz78R0O-75" value="Nhập Mã Xác Thực Để Tạo Lại MK mới" style="rounded=1;whiteSpace=wrap;html=1;arcSize=40;fontColor=#000000;fillColor=#ffffc0;strokeColor=#ff0000;" vertex="1" parent="_XAov5C94fZW8wz78R0O-64">
          <mxGeometry x="115" y="536" width="120" height="40" as="geometry" />
        </mxCell>
        <mxCell id="_XAov5C94fZW8wz78R0O-76" value="" style="edgeStyle=orthogonalEdgeStyle;html=1;verticalAlign=bottom;endArrow=open;endSize=8;strokeColor=#ff0000;rounded=0;" edge="1" parent="_XAov5C94fZW8wz78R0O-64">
          <mxGeometry relative="1" as="geometry">
            <mxPoint x="174" y="636" as="targetPoint" />
            <mxPoint x="174" y="626" as="sourcePoint" />
            <Array as="points">
              <mxPoint x="174" y="576" />
              <mxPoint x="174" y="576" />
            </Array>
          </mxGeometry>
        </mxCell>
        <mxCell id="_XAov5C94fZW8wz78R0O-77" value="" style="ellipse;html=1;shape=endState;fillColor=#000000;strokeColor=#ff0000;" vertex="1" parent="_XAov5C94fZW8wz78R0O-64">
          <mxGeometry x="160" y="886" width="30" height="30" as="geometry" />
        </mxCell>
        <mxCell id="_XAov5C94fZW8wz78R0O-78" value="Vào Tranng Quên Mật Khẩu" style="rounded=1;whiteSpace=wrap;html=1;arcSize=40;fontColor=#000000;fillColor=#ffffc0;strokeColor=#ff0000;" vertex="1" parent="_XAov5C94fZW8wz78R0O-64">
          <mxGeometry x="120" y="110" width="120" height="40" as="geometry" />
        </mxCell>
        <mxCell id="_XAov5C94fZW8wz78R0O-79" value="Nhập Gmal Đã Đăng Kí" style="rounded=1;whiteSpace=wrap;html=1;arcSize=40;fontColor=#000000;fillColor=#ffffc0;strokeColor=#ff0000;" vertex="1" parent="_XAov5C94fZW8wz78R0O-64">
          <mxGeometry x="110" y="230" width="120" height="40" as="geometry" />
        </mxCell>
        <mxCell id="_XAov5C94fZW8wz78R0O-80" value="" style="edgeStyle=orthogonalEdgeStyle;html=1;verticalAlign=bottom;endArrow=open;endSize=8;strokeColor=#ff0000;rounded=0;exitX=0.454;exitY=1;exitDx=0;exitDy=0;exitPerimeter=0;" edge="1" parent="_XAov5C94fZW8wz78R0O-64" source="_XAov5C94fZW8wz78R0O-78">
          <mxGeometry relative="1" as="geometry">
            <mxPoint x="174.5" y="230" as="targetPoint" />
            <mxPoint x="175" y="160" as="sourcePoint" />
            <Array as="points" />
          </mxGeometry>
        </mxCell>
        <mxCell id="_XAov5C94fZW8wz78R0O-81" value="yes" style="edgeStyle=orthogonalEdgeStyle;html=1;align=left;verticalAlign=top;endArrow=open;endSize=8;strokeColor=#ff0000;rounded=0;entryX=0.5;entryY=0;entryDx=0;entryDy=0;" edge="1" parent="_XAov5C94fZW8wz78R0O-64" source="_XAov5C94fZW8wz78R0O-69" target="_XAov5C94fZW8wz78R0O-73">
          <mxGeometry x="-1" relative="1" as="geometry">
            <mxPoint x="195" y="430" as="targetPoint" />
            <Array as="points">
              <mxPoint x="175" y="430" />
              <mxPoint x="175" y="430" />
            </Array>
          </mxGeometry>
        </mxCell>
        <mxCell id="_XAov5C94fZW8wz78R0O-100" value="Trở Vể Trang Đăng Nhập" style="rounded=1;whiteSpace=wrap;html=1;arcSize=40;fontColor=#000000;fillColor=#ffffc0;strokeColor=#ff0000;" vertex="1" parent="_XAov5C94fZW8wz78R0O-64">
          <mxGeometry x="115" y="756" width="120" height="40" as="geometry" />
        </mxCell>
        <mxCell id="_XAov5C94fZW8wz78R0O-101" value="" style="edgeStyle=orthogonalEdgeStyle;html=1;verticalAlign=bottom;endArrow=open;endSize=8;strokeColor=#ff0000;rounded=0;entryX=0.5;entryY=0;entryDx=0;entryDy=0;" edge="1" parent="_XAov5C94fZW8wz78R0O-64" target="_XAov5C94fZW8wz78R0O-77">
          <mxGeometry relative="1" as="geometry">
            <mxPoint x="180" y="886" as="targetPoint" />
            <mxPoint x="175" y="836" as="sourcePoint" />
            <Array as="points">
              <mxPoint x="175" y="796" />
              <mxPoint x="175" y="796" />
            </Array>
          </mxGeometry>
        </mxCell>
        <mxCell id="_XAov5C94fZW8wz78R0O-108" value="Xác Thực" style="rhombus;whiteSpace=wrap;html=1;fontColor=#000000;fillColor=#ffffc0;strokeColor=#ff0000;" vertex="1" parent="_XAov5C94fZW8wz78R0O-64">
          <mxGeometry x="135" y="636" width="80" height="40" as="geometry" />
        </mxCell>
        <mxCell id="_XAov5C94fZW8wz78R0O-109" value="Sai&lt;br&gt;" style="edgeStyle=orthogonalEdgeStyle;html=1;align=left;verticalAlign=bottom;endArrow=open;endSize=8;strokeColor=#ff0000;rounded=0;entryX=0.5;entryY=1;entryDx=0;entryDy=0;" edge="1" source="_XAov5C94fZW8wz78R0O-108" parent="_XAov5C94fZW8wz78R0O-64" target="_XAov5C94fZW8wz78R0O-113">
          <mxGeometry x="-1" relative="1" as="geometry">
            <mxPoint x="330" y="616" as="targetPoint" />
            <Array as="points">
              <mxPoint x="490" y="656" />
            </Array>
          </mxGeometry>
        </mxCell>
        <mxCell id="_XAov5C94fZW8wz78R0O-110" value="Đúng&lt;br&gt;" style="edgeStyle=orthogonalEdgeStyle;html=1;align=left;verticalAlign=top;endArrow=open;endSize=8;strokeColor=#ff0000;rounded=0;" edge="1" source="_XAov5C94fZW8wz78R0O-108" parent="_XAov5C94fZW8wz78R0O-64">
          <mxGeometry x="-1" relative="1" as="geometry">
            <mxPoint x="175" y="756" as="targetPoint" />
          </mxGeometry>
        </mxCell>
        <mxCell id="_XAov5C94fZW8wz78R0O-113" value="Mã Xác Thực Không Đúng" style="rounded=1;whiteSpace=wrap;html=1;arcSize=40;fontColor=#000000;fillColor=#ffffc0;strokeColor=#ff0000;" vertex="1" parent="_XAov5C94fZW8wz78R0O-64">
          <mxGeometry x="430" y="536" width="120" height="40" as="geometry" />
        </mxCell>
        <mxCell id="_XAov5C94fZW8wz78R0O-115" style="edgeStyle=orthogonalEdgeStyle;rounded=0;orthogonalLoop=1;jettySize=auto;html=1;exitX=0.5;exitY=1;exitDx=0;exitDy=0;" edge="1" parent="_XAov5C94fZW8wz78R0O-64" source="_XAov5C94fZW8wz78R0O-113" target="_XAov5C94fZW8wz78R0O-113">
          <mxGeometry relative="1" as="geometry" />
        </mxCell>
        <mxCell id="_XAov5C94fZW8wz78R0O-114" value="" style="edgeStyle=orthogonalEdgeStyle;html=1;verticalAlign=bottom;endArrow=open;endSize=8;strokeColor=#ff0000;rounded=0;entryX=1;entryY=0.5;entryDx=0;entryDy=0;" edge="1" parent="_XAov5C94fZW8wz78R0O-64" target="_XAov5C94fZW8wz78R0O-73">
          <mxGeometry relative="1" as="geometry">
            <mxPoint x="329" y="466" as="targetPoint" />
            <mxPoint x="480" y="536" as="sourcePoint" />
            <Array as="points">
              <mxPoint x="490" y="536" />
              <mxPoint x="490" y="470" />
            </Array>
          </mxGeometry>
        </mxCell>
        <mxCell id="_XAov5C94fZW8wz78R0O-128" value="Nhập Lại Mã" style="html=1;verticalAlign=bottom;endArrow=open;dashed=1;endSize=8;curved=0;rounded=0;exitX=0;exitY=0.5;exitDx=0;exitDy=0;entryX=1;entryY=0.5;entryDx=0;entryDy=0;" edge="1" parent="_XAov5C94fZW8wz78R0O-64" source="_XAov5C94fZW8wz78R0O-113" target="_XAov5C94fZW8wz78R0O-75">
          <mxGeometry relative="1" as="geometry">
            <mxPoint x="270" y="506" as="sourcePoint" />
            <mxPoint x="190" y="506" as="targetPoint" />
            <Array as="points" />
          </mxGeometry>
        </mxCell>
        <mxCell id="_XAov5C94fZW8wz78R0O-119" value="" style="swimlane;childLayout=stackLayout;resizeParent=1;resizeParentMax=0;horizontal=1;startSize=0;horizontalStack=0;html=1;" vertex="1" parent="1">
          <mxGeometry x="390" y="1120" width="1160" height="280" as="geometry">
            <mxRectangle x="390" y="1100" width="70" height="30" as="alternateBounds" />
          </mxGeometry>
        </mxCell>
        <mxCell id="_XAov5C94fZW8wz78R0O-122" value="Hệ Thống" style="swimlane;startSize=20;horizontal=0;html=1;" vertex="1" parent="_XAov5C94fZW8wz78R0O-119">
          <mxGeometry width="1160" height="280" as="geometry" />
        </mxCell>
        <mxCell id="_XAov5C94fZW8wz78R0O-120" value="USER" style="swimlane;startSize=20;horizontal=0;html=1;" vertex="1" parent="1">
          <mxGeometry x="390" y="1119" width="1160" height="120" as="geometry" />
        </mxCell>
      </root>
    </mxGraphModel>
  </diagram>
</mxfile>
